# xmcd
#
# Track frame offsets:
#	150
#	21730
#	36510
#	52200
#	73658
#	91558
#	105090
#	121995
#	140455
#	160000
#
# Disc length: 2342 seconds
#
# Revision: 2
# Processed by: cddbd v1.4PL0 Copyright (c) Steve Scherf et al.
# Submitted via: EasyCDDAExtractor 4.6.0.1
#
DISCID=8409240a
DTITLE=Peter Wells - Everything You Like Tries To Kill You
DYEAR=1991
DGENRE=Blues
TTITLE0=Between The Saddle And The Ground
TTITLE1=Darling, Please Don't Fight With Me
TTITLE2=Rock 'N' Roll Outlaw
TTITLE3=Devil You Know
TTITLE4=Something For The Rabbit
TTITLE5=Halfway Up My Mountain
TTITLE6=Scratch A Little
TTITLE7=Show Me Where The body is
TTITLE8=Everthing You Like Tries To Kill You
TTITLE9=Still Got The Boogie
EXTD=
EXTT0=
EXTT1=
EXTT2=
EXTT3=
EXTT4=
EXTT5=
EXTT6=
EXTT7=
EXTT8=
EXTT9=
PLAYORDER=
